Coordinates
version=1
nRows=29
nColumns=24
inDegrees=yes

Units are S.I. units (second, meters, Newtons, ...)
Angles are in degrees.

endheader
time	pelvis_tilt	pelvis_list	pelvis_rotation	pelvis_tx	pelvis_ty	pelvis_tz	hip_flexion_r	hip_adduction_r	hip_rotation_r	knee_angle_r	ankle_angle_r	subtalar_angle_r	mtp_angle_r	hip_flexion_l	hip_adduction_l	hip_rotation_l	knee_angle_l	ankle_angle_l	subtalar_angle_l	mtp_angle_l	lumbar_extension	lumbar_bending	lumbar_rotation
      5.50000000	    -12.48605565	      7.20996683	      3.12923905	     -0.27688112	     -0.03709119	      2.02420411	     16.07970735	    -13.68161871	    -11.37468498	    -59.30842715	    -24.54295955	    -10.15861688	     24.60506274	     31.41669544	     11.51363493	     -6.32092180	    -23.39223477	     -3.20329183	     -7.43007077	     15.88671818	      9.45423337	     -9.05378265	     -2.65667909
      5.51000000	    -12.28829720	      7.23529436	      3.01908177	     -0.26417479	     -0.03459816	      2.02344471	     17.71057274	    -13.46047014	    -10.43006275	    -60.66517020	    -23.25835332	    -11.44208872	     24.54805643	     29.99795373	     11.50198602	     -6.54365801	    -22.82946468	     -2.49164522	     -6.92206131	     16.40200429	      9.20856839	     -9.00448102	     -2.89257430
      5.52000000	    -12.17430533	      7.20237841	      3.03210417	     -0.25160299	     -0.03217619	      2.02256350	     19.37936280	    -13.19796663	     -9.64895159	    -61.72868255	    -21.84885089	    -12.04324057	     24.67218291	     28.63434913	     11.50610982	     -6.57257130	    -22.19983882	     -1.87768533	     -6.41755810	     16.78518091	      9.03088818	     -8.92297365	     -3.29389967
      5.53000000	    -12.07191090	      7.13337397	      2.93533202	     -0.23921115	     -0.02979519	      2.02176799	     21.08622625	    -12.82713288	     -8.79329256	    -62.50678619	    -20.45474565	    -12.18878779	     24.94958122	     27.24098373	     11.45399547	     -6.56464853	    -21.45140490	     -1.34526815	     -6.09845150	     17.17965387	      8.86781060	     -8.76682465	     -3.50897387
      5.54000000	    -11.96476277	      6.98971574	      2.96012139	     -0.22682388	     -0.02744712	      2.02079721	     22.66282630	    -12.41344157	     -8.14456427	    -62.93980881	    -18.94637551	    -11.88713852	     25.47379101	     25.78253580	     11.41459221	     -6.32355563	    -20.60400535	     -0.86309689	     -5.88986906	     17.30682337	      8.69254365	     -8.54959313	     -3.87563285
      5.55000000	    -11.79900455	      6.79832099	      3.01064659	     -0.21455146	     -0.02512183	      2.01970855	     24.06924619	    -11.97180259	     -7.62450037	    -62.97890987	    -17.60907633	    -11.48311976	     28.08961603	     24.24037974	     11.36587894	     -5.95774977	    -19.70185404	     -0.42875432	     -5.83160269	     16.90022950	      8.43884215	     -8.27687684	     -4.26146871
      5.56000000	    -11.64586612	      6.55508751	      3.10637247	     -0.20234686	     -0.02297114	      2.01861352	     25.41057073	    -11.47725664	     -7.22218615	    -62.77213873	    -15.97655254	    -10.84099569	     29.15940930	     22.71543770	     11.28533197	     -5.49239131	    -18.78195418	     -0.07759183	     -5.91847566	     16.54335717	      8.18967326	     -7.96517519	     -4.66311790
      5.57000000	    -11.53225838	      6.15583683	      3.33390648	     -0.19028393	     -0.02101133	      2.01738942	     26.64935088	    -10.88788942	     -7.08319222	    -62.19306118	    -14.53798081	    -10.31671628	     31.20207418	     21.31100960	     11.06733090	     -4.94369648	    -18.01752735	      0.49577168	     -5.78338134	     15.71473419	      7.95488180	     -7.51860446	     -5.24305511
      5.58000000	    -11.48317197	      5.74853275	      3.59369086	     -0.17829120	     -0.01933961	      2.01619265	     27.89373476	    -10.31887502	     -7.05368656	    -61.41232268	    -12.94549583	     -9.74923554	     31.59035963	     20.00580944	     10.83501085	     -4.38223981	    -17.25466102	      0.87541662	     -5.81541509	     15.60098248	      7.78623280	     -7.07993683	     -5.73991184
      5.59000000	    -11.36868984	      5.28434820	      3.93109791	     -0.16640970	     -0.01773335	      2.01492527	     28.95273098	     -9.75421011	     -7.21076398	    -60.32796800	    -11.57994286	     -9.34138498	     31.93867293	     18.66688025	     10.55272114	     -3.72522250	    -16.53848907	      1.22557381	     -5.90172515	     15.35455607	      7.52359418	     -6.59108767	     -6.32773101
      5.60000000	    -11.25001375	      4.79775546	      4.31341738	     -0.15460859	     -0.01630674	      2.01365686	     29.92674259	     -9.21861148	     -7.50204479	    -58.99664771	    -10.46691170	     -9.12617754	     32.07945054	     17.35716419	     10.23440057	     -3.04241797	    -15.86381538	      1.59747808	     -5.97356861	     15.02186667	      7.24695138	     -6.08830911	     -6.91831730
      5.61000000	    -11.12759192	      4.31270481	      4.72814267	     -0.14285906	     -0.01508971	      2.01238977	     30.82524405	     -8.74003587	     -7.91363895	    -57.45325751	     -9.55268383	     -9.06046657	     31.89570934	     16.07006282	      9.89834602	     -2.37791693	    -15.21876856	      2.00205822	     -6.01655252	     14.60461127	      6.96230177	     -5.59085674	     -7.50145319
      5.62000000	    -10.88334564	      3.88569646	      5.05220019	     -0.13111971	     -0.01396280	      2.01130752	     31.55052501	     -8.26994103	     -8.26176011	    -55.75057440	     -8.65902651	     -9.00528607	     30.47017222	     14.64680563	      9.56796256	     -1.76848068	    -14.56568303	      2.52595652	     -6.04800125	     13.42682469	      6.55129789	     -5.12983239	     -7.93972538
      5.63000000	    -10.98176870	      3.40998251	      5.57750280	     -0.11955396	     -0.01349408	      2.01005913	     32.56544602	     -7.93483388	     -8.86067027	    -53.87508477	     -7.96494520	     -9.00646333	     29.89808016	     13.70598679	      9.21326366	     -1.20654270	    -14.06939469	      3.02014368	     -5.86711669	     13.27433693	      6.49082493	     -4.68333892	     -8.56358903
      5.64000000	    -10.91827851	      3.01144687	      5.91343891	     -0.10799056	     -0.01306280	      2.00919141	     33.38028883	     -7.52227326	     -9.21191825	    -51.90996244	     -6.94911111	     -8.72909271	     26.39553013	     12.56366039	      8.85941182	     -0.73866945	    -13.52549443	      3.62711131	     -5.71841706	     12.28080452	      6.26440225	     -4.28346485	     -8.94562874
      5.65000000	    -10.96456035	      2.59588808	      6.34194118	     -0.09657688	     -0.01295330	      2.00818609	     34.18974624	     -7.22300945	     -9.73721680	    -49.64783004	     -6.37100148	     -8.53878660	     25.98897809	     11.58980941	      8.50015140	     -0.24920316	    -13.01900849	      4.06566014	     -5.63720791	     12.26136137	      6.14039629	     -3.88001832	     -9.41970798
      5.66000000	    -10.81127733	      2.24890734	      6.59337459	     -0.08513703	     -0.01279551	      2.00752028	     34.72307766	     -6.85673088	    -10.07823913	    -47.23771665	     -5.64909804	     -8.07978519	     24.35682471	     10.34536071	      8.13219131	      0.14542227	    -12.40851970	      4.51617893	     -5.61201202	     11.90460948	      5.80464759	     -3.50841581	     -9.70109091
      5.67000000	    -11.03585134	      1.94299270	      6.90614178	     -0.07379130	     -0.01329547	      2.00685043	     35.61282379	     -6.66125140	    -10.52386147	    -44.70876908	     -5.09219770	     -7.42671969	     24.14687568	      9.57704677	      7.83459592	      0.46112710	    -11.90855896	      4.98870442	     -5.42278164	     11.87550338	      5.86591810	     -3.23623265	     -9.97289456
      5.68000000	    -11.03112953	      1.66641091	      7.10622976	     -0.06234087	     -0.01363449	      2.00632512	     36.15322273	     -6.42966126	    -10.97082915	    -41.98905944	     -4.60283457	     -6.54140377	     23.99264651	      8.49803320	      7.50837283	      0.64221988	    -11.29208403	      5.44415616	     -5.25792670	     11.63875755	      5.69314929	     -2.93740568	    -10.22249839
      5.69000000	    -11.00747467	      1.40832807	      7.18549015	     -0.05078057	     -0.01411948	      2.00604129	     36.59827365	     -6.15112286	    -11.40840198	    -39.12537865	     -4.20345995	     -5.47372559	     24.36699560	      7.37989000	      7.16054729	      0.67881641	    -10.65473427	      5.97832096	     -5.02224363	     11.23604102	      5.51502440	     -2.64440981	    -10.27901683
      5.70000000	    -10.95659815	      1.13647491	      7.21308641	     -0.03918015	     -0.01465808	      2.00587527	     36.91334900	     -5.83572992	    -11.90296497	    -36.10360735	     -3.95519671	     -4.17638640	     25.62243466	      6.25109409	      6.76813673	      0.51230350	    -10.05025288	      6.56636503	     -4.59128319	     10.79602455	      5.31204315	     -2.32322117	    -10.28865774
      5.71000000	    -10.92872147	      0.85764810	      7.16010625	     -0.02756888	     -0.01530158	      2.00585481	     37.16140164	     -5.46302635	    -12.40537240	    -32.95351251	     -3.85000738	     -2.72114657	     27.59680271	      5.17599064	      6.35125625	      0.10268886	     -9.48944204	      7.15440432	     -4.01912897	     10.50568996	      5.13367498	     -1.98219878	    -10.19593811
      5.72000000	    -11.01074380	      0.65997834	      6.97374241	     -0.01603260	     -0.01617452	      2.00598986	     37.47148147	     -5.09341210	    -12.79079477	    -29.75053536	     -3.87516934	     -1.14727176	     30.58064541	      4.23550327	      6.04341376	     -0.47451573	     -8.94954756	      7.56031077	     -3.63575378	     10.29245601	      5.05349143	     -1.71218029	     -9.93055043
      5.73000000	    -11.09219833	      0.34631344	      6.83597190	     -0.00443427	     -0.01704858	      2.00624936	     37.65363119	     -4.57574138	    -13.17536897	    -26.52944918	     -3.62682566	      0.41070427	     30.84862216	      3.38096781	      5.59306941	     -1.19556292	     -8.55970694	      8.07605574	     -2.93945139	     10.43339555	      4.98833150	     -1.33792433	     -9.75408586
      5.74000000	    -11.17189690	      0.15034840	      6.62028803	      0.00725895	     -0.01808379	      2.00667351	     37.75287778	     -4.10236690	    -13.42392248	    -23.34033319	     -3.30481521	      1.88764103	     30.81327431	      2.53080740	      5.27516969	     -2.01839052	     -8.21852941	      8.47495937	     -2.33771836	     10.53911875	      4.91659755	     -1.07695164	     -9.45101467
      5.75000000	    -11.07637269	     -0.08440344	      6.43766173	      0.01926656	     -0.01904067	      2.00722787	     37.47660188	     -3.53074203	    -13.60876559	    -20.02286142	     -3.11347208	      2.90712341	     30.25901493	      1.52714131	      4.87784409	     -2.85519404	     -7.99157249	      8.94004365	     -1.58330093	     10.65869732	      4.69512617	     -0.77280291	     -9.19669148
      5.76000000	    -10.90435391	     -0.28412171	      6.37966432	      0.03166039	     -0.02010998	      2.00778724	     36.95997384	     -3.00253919	    -13.63848643	    -16.77137557	     -2.59999079	      3.65099614	     26.17374357	      0.46312471	      4.51336175	     -3.39930982	     -7.86668341	      9.31350637	     -1.04852041	     10.54501197	      4.43993301	     -0.52598061	     -9.08030394
      5.77000000	    -10.70616869	     -0.47136383	      6.42060612	      0.04441502	     -0.02131155	      2.00838317	     36.26445490	     -2.55399884	    -13.92439123	    -13.47023589	     -2.58888430	      4.02299214	     25.39473923	     -0.54025428	      4.11043533	     -4.03049518	     -7.96781018	      9.81803708	     -0.06374770	     10.68114130	      4.20618522	     -0.31929101	     -9.01721581
      5.78000000	    -10.36311930	     -0.71681913	      6.47051485	      0.05734950	     -0.02233991	      2.00899169	     35.41334997	     -2.03670931	    -14.09960784	    -10.59658606	     -2.07556677	      4.31461246	     20.96126930	     -1.63848497	      3.62796560	     -4.35443081	     -8.19121570	     10.16877919	      0.51086819	     10.29301490	      3.84321566	     -0.02984298	     -9.00200998
